<!--?xml version="1.0" encoding="utf-8"?-->
<!-- Generator: Adobe Illustrator 18.1.1, SVG Export Plug-In . SVG Version: 6.00 Build 0)  -->

<svg version="1.1" id="_x32_" xmlns="http://www.w3.org/2000/svg" xmlns:xlink="http://www.w3.org/1999/xlink" x="0px" y="0px" viewBox="0 0 512 512" style="width: 256px; height: 256px; opacity: 1;" xml:space="preserve">
<style type="text/css">
	.st0{fill:#4B4B4B;}
</style>
<g>
	<path class="st0" d="M209.066,281.519c3.928-35.918,18.086-89.272,46.933-89.272c12.43,0,22.114,9.928,29.446,24.068l46.562-39.752
		C318.05,77.151,288.039,7.009,255.999,7.009c-44.017,0-84.2,132.313-84.2,291.096c0,5.148,0.051,10.172,0.152,15.102
		L209.066,281.519z" style="fill: rgb(75, 75, 75);"></path>
	<path class="st0" d="M298.33,253.919c3.978,17.638,5.781,35.167,5.781,46.587c0,31.274-19.239,40.898-28.864,40.898h-38.488
		c-6.228,0-16.451-4.07-22.906-15.363l-39.466,33.693c9.515,105.192,44.118,145.257,81.613,145.257
		c44.092,0,84.199-55.335,84.199-206.887c0-26.639-1.13-52.529-3.22-77.171L298.33,253.919z" style="fill: rgb(75, 75, 75);"></path>
	<path class="st0" d="M505.301,61.257l-8.234-9.641c-21.944-25.704-66.308,4.761-89.87,24.878
		c-23.564,20.116-9.321,52.41-33.736,73.252l2.098,2.46L125.111,366.021l-2.108-2.461c-24.414,20.842-54.079,1.719-77.643,21.836
		c-23.572,20.117-60.61,59.153-38.665,84.857l8.234,9.641c21.946,25.704,66.308-4.762,89.87-24.878
		c23.564-20.117,9.321-52.411,33.744-73.261l-2.099-2.453l250.449-213.814l2.099,2.46c24.423-20.841,54.079-1.719,77.651-21.835
		C490.208,125.997,527.255,86.961,505.301,61.257z" style="fill: rgb(75, 75, 75);"></path>
</g>
</svg>
