<!--?xml version="1.0" encoding="utf-8"?-->
<!-- Generator: Adobe Illustrator 15.1.0, SVG Export Plug-In . SVG Version: 6.00 Build 0)  -->

<svg version="1.1" id="_x32_" xmlns="http://www.w3.org/2000/svg" xmlns:xlink="http://www.w3.org/1999/xlink" x="0px" y="0px" width="512px" height="512px" viewBox="0 0 512 512" style="width: 256px; height: 256px; opacity: 1;" xml:space="preserve">
<style type="text/css">

	.st0{fill:#4B4B4B;}

</style>
<g>
	<polygon class="st0" points="319.141,324.732 279.297,245.514 232.672,386.217 169.703,171.967 140.266,284.717 64.953,284.717 
		255.984,475.779 447.047,284.717 357.859,284.717 	" style="fill: rgb(75, 75, 75);"></polygon>
	<path class="st0" d="M473.984,74.248c-50.688-50.703-132.875-50.703-183.563,0c-17.563,17.563-29.031,38.891-34.438,61.391
		c-5.375-22.5-16.844-43.828-34.406-61.391c-50.688-50.703-132.875-50.703-183.563,0c-50.688,50.672-50.688,132.875,0,183.547
		l3.594,3.594h80.625l46.125-176.703l65.656,223.328l40.875-123.281l50.344,100.156l22.75-23.5h122.406l3.594-3.594
		C524.672,207.123,524.672,124.92,473.984,74.248z" style="fill: rgb(75, 75, 75);"></path>
</g>
</svg>
